# xmcd
#
# Track frame offsets:
#	150
#	10519
#	22030
#	33067
#	43127
#	51617
#	61912
#	72923
#	85335
#	96582
#	109980
#	122198
#	134096
#	145693
#	155739
#	164288
#	173449
#	185933
#	197463
#	207648
#	217895
#	229645
#	240853
#	249428
#	259559
#	269703
#	278412
#	289970
#	299349
#	310993
#	320762
#
# Disc length: 4398 seconds
# Revision: 0
# Processed by: cddbd v1.5.2PL0 Copyright (c) Steve Scherf et al.
# Submitted via: dBpowerAMP V12.0
#
DISCID=d9112c1f
DTITLE=Various Artist - The Complete As and Bs and More 1954-62
DYEAR=2016
DGENRE=Country
TTITLE0=Jim Edward And Maxine Brown - Looking Back To See
TTITLE1=Jim Edward And Maxine Brown - Rio De Janeiro
TTITLE2=Jim Edward And Maxine Brown - Itsy Witsy Bitsy Me
TTITLE3=Jim Edward And Maxine Brown - Why Am I Falling
TTITLE4=Jim Edward And Maxine Brown - Draggin' Main Street
TTITLE5=Jim Edward And Maxine Brown - Your Love Is As Wild As The West Wind
TTITLE6=Jim Edward And Maxine Brown - Do Memories Haunt Me
TTITLE7=Jim Edward And Maxine Brown - Jungle Magic
TTITLE8=Jim Edward And Maxine Brown - You Thoyght I Thought
TTITLE9=Jim Edward And Maxine Brown - Here Today And Come Tomorrow
TTITLE10=Jim Edward And Maxine Brown - I Take The Chance
TTITLE11=Jim Edward And Maxine Brown - Goo Goo Da Da
TTITLE12=Jim Edward, Maxine Brown and Bonnie Brown - Just As Long As You Love Me
TTITLE13=Jim Edward, Maxine Brown and Bonnie Brown - Don't Tell Me Your Troubles
TTITLE14=Jim Edward And Maxine Brown - Man With A Plan, A
TTITLE15=Jim Edward And Maxine Brown - Just A Lot Of Sweet Talk
TTITLE16=Jim Edward And Maxine Brown - Money
TTITLE17=Jim Edward And Maxine Brown - It Takes A Long Train With A Caboose
TTITLE18=Jim Edward And Maxine Brown - I'm In Heaven
TTITLE19=Jim Edward And Maxine Brown - Getting Used To Being Lonely
TTITLE20=Jim Edward And Maxine Brown - I Heard The Bluebirds Sing
TTITLE21=Jim Edward And Maxine Brown - Last Thing I Want, The
TTITLE22=Browns, The - Man In The Moon, The
TTITLE23=Browns, The - True Love Goes Far Beyond
TTITLE24=Browns, The - Crazy Dreams
TTITLE25=Browns, The - Ain't No Way In The World
TTITLE26=Browns, The - Would You Care?
TTITLE27=Browns, The - Trot, The
TTITLE28=Browns, The - Beyond The Shadow
TTITLE29=Browns, The - This Time I Would Know
TTITLE30=Browns, The - Heaven Fell Last Night
EXTD=
EXTT0=
EXTT1=
EXTT2=
EXTT3=
EXTT4=
EXTT5=
EXTT6=
EXTT7=
EXTT8=
EXTT9=
EXTT10=
EXTT11=
EXTT12=
EXTT13=
EXTT14=
EXTT15=
EXTT16=
EXTT17=
EXTT18=
EXTT19=
EXTT20=
EXTT21=
EXTT22=
EXTT23=
EXTT24=
EXTT25=
EXTT26=
EXTT27=
EXTT28=
EXTT29=
EXTT30=
PLAYORDER=
